<svg width="55" height="55" viewBox="0 0 55 55" fill="none" xmlns="http://www.w3.org/2000/svg">
<rect width="55" height="55" rx="27.5" fill="#06B02B"/>
<path d="M22.2917 20C22.2917 16.4583 25 13.75 28.5417 13.75C32.0833 13.75 34.7917 16.4583 34.7917 20C34.7917 23.5417 32.0833 26.25 28.5417 26.25C25 26.25 22.2917 23.5417 22.2917 20ZM28.5417 30.4167C18.9583 30.4167 16.0417 37.2917 16.0417 37.2917V40.8333H41.0417V37.2917C41.0417 37.2917 38.125 30.4167 28.5417 30.4167Z" fill="white"/>
<path d="M42.8736 21.9692C45.1432 21.9692 46.9832 20.1293 46.9832 17.8596C46.9832 15.5899 45.1432 13.75 42.8736 13.75C40.6039 13.75 38.764 15.5899 38.764 17.8596C38.764 20.1293 40.6039 21.9692 42.8736 21.9692Z" fill="white"/>
<path d="M42.8736 25.2569C40.901 25.2569 39.4215 25.75 38.2708 26.5719C42.0517 28.3802 43.5311 31.5034 43.5311 31.8322V31.9966H50.2708V29.8596C50.2708 29.6952 48.4626 25.2569 42.8736 25.2569Z" fill="white"/>
<path d="M11.4583 18.3333V33.3333" stroke="white" stroke-width="2" stroke-miterlimit="10"/>
<path d="M19 27H4" stroke="white" stroke-width="2" stroke-miterlimit="10"/>
</svg>
