<svg width="34" height="32" viewBox="0 0 34 32" fill="none" xmlns="http://www.w3.org/2000/svg">

<path d="M2.55352 17.7516C1.17426 15.4279 0.690825 12.6805 1.19399 10.0256C1.69716 7.37061 3.15232 4.99068 5.28617 3.33277C7.42003 1.67486 10.0858 0.853023 12.7827 1.02162C15.4797 1.19022 18.0223 2.33765 19.9331 4.24841C21.8438 6.15917 22.9913 8.70179 23.1598 11.3988C23.3284 14.0957 22.5066 16.7614 20.8487 18.8953C19.1908 21.0291 16.8109 22.4843 14.1559 22.9875C11.5009 23.4906 8.7536 23.0072 6.42988 21.6279L2.59966 22.7201C2.44185 22.7645 2.27507 22.766 2.11646 22.7246C1.95786 22.6831 1.81316 22.6001 1.69724 22.4842C1.58132 22.3683 1.49837 22.2236 1.45692 22.065C1.41546 21.9064 1.417 21.7396 1.46137 21.5818L2.55352 17.7516Z" stroke="#2D2D2D" stroke-linecap="round" stroke-linejoin="round"/>
<path d="M11.4753 23.1662C12.0174 24.7119 12.8961 26.1178 14.0479 27.2825C15.1997 28.4472 16.5958 29.3415 18.1354 29.9008C19.675 30.4601 21.3196 30.6705 22.9504 30.5167C24.5812 30.3629 26.1574 29.8488 27.5653 29.0115L31.3955 30.1036C31.5533 30.148 31.7201 30.1495 31.8787 30.1081C32.0373 30.0666 32.182 29.9837 32.2979 29.8677C32.4138 29.7518 32.4968 29.6071 32.5382 29.4485C32.5797 29.2899 32.5782 29.1231 32.5338 28.9653L31.4416 25.1351C32.4167 23.4984 32.9524 21.6377 32.997 19.7331C33.0415 17.8285 32.5933 15.9447 31.6958 14.2643C30.7983 12.5838 29.482 11.1637 27.8744 10.1415C26.2667 9.11929 24.4223 8.52968 22.5198 8.42981" stroke="#2D2D2D" stroke-linecap="round" stroke-linejoin="round"/>
</svg>
