<svg width="24" height="24" viewBox="0 0 24 24" fill="none" xmlns="http://www.w3.org/2000/svg">
<path d="M23.9626 18.1409L22.8728 22.8659C22.7197 23.5339 22.1326 24.0012 21.445 24.0012C9.61889 24.0003 0.000144958 14.3815 0.000144958 2.55496C0.000144958 1.86777 0.467442 1.27996 1.13546 1.12762L5.86046 0.037775C6.54858 -0.121694 7.25171 0.235494 7.53765 0.88715L9.71827 5.97309C9.97318 6.57215 9.80124 7.27012 9.29733 7.68168L6.77358 9.70809C8.36639 12.9528 11.0045 15.5909 14.2501 17.1847L16.3164 14.6628C16.7236 14.1575 17.4269 13.9826 18.0259 14.2421L23.1119 16.4222C23.7236 16.744 24.122 17.4565 23.9626 18.1409Z" fill="#2D2D2D"/>
</svg>
