<svg width="36" height="37" viewBox="0 0 36 37" fill="none" xmlns="http://www.w3.org/2000/svg">
<path d="M18.4838 13.743C17.4738 13.6417 16.4576 13.8599 15.5744 14.3678C14.6913 14.8758 13.9842 15.6485 13.5502 16.5804C13.1161 17.5122 12.9762 18.5575 13.1497 19.5732C13.3231 20.5889 13.8014 21.5254 14.5191 22.2543C15.2368 22.9832 16.1587 23.469 17.1587 23.6452C18.1587 23.8214 19.1879 23.6793 20.1053 23.2384C21.0228 22.7975 21.7836 22.0794 22.2837 21.1824C22.7838 20.2853 22.9986 19.2532 22.8989 18.2273C22.7852 17.0773 22.2835 16.0026 21.4788 15.1853C20.6742 14.368 19.6161 13.8585 18.4838 13.743ZM30.3369 18.7188C30.3337 19.2622 30.2944 19.8049 30.2192 20.343L33.6966 23.1133C33.848 23.2408 33.9501 23.4187 33.9846 23.6153C34.0191 23.812 33.9838 24.0147 33.8851 24.1875L30.5953 29.9688C30.4954 30.1399 30.3392 30.2696 30.1543 30.3352C29.9694 30.4008 29.7677 30.398 29.5846 30.3273L26.131 28.9148C25.9405 28.8378 25.7342 28.81 25.5306 28.8339C25.327 28.8577 25.1323 28.9325 24.9641 29.0516C24.4371 29.4202 23.8832 29.7477 23.3073 30.0312C23.1263 30.1206 22.9697 30.2539 22.8514 30.4193C22.7331 30.5847 22.6567 30.7772 22.6289 30.9797L22.1113 34.7211C22.0773 34.9187 21.9768 35.0982 21.8269 35.2288C21.6771 35.3595 21.4872 35.4333 21.2898 35.4375H14.7102C14.516 35.4341 14.3288 35.3636 14.1793 35.2376C14.0299 35.1117 13.9271 34.9377 13.888 34.7445L13.3711 31.0086C13.3421 30.8039 13.2637 30.6096 13.1429 30.443C13.0221 30.2765 12.8627 30.1428 12.6788 30.0539C12.1036 29.7719 11.5517 29.4435 11.0282 29.0719C10.8606 28.9534 10.6666 28.8792 10.4637 28.8559C10.2608 28.8326 10.0554 28.8609 9.86594 28.9383L6.4131 30.35C6.23012 30.4208 6.02842 30.4237 5.84353 30.3582C5.65864 30.2928 5.50242 30.1632 5.4024 29.9922L2.11262 24.2109C2.01372 24.0382 1.97837 23.8354 2.01288 23.6387C2.04739 23.442 2.14952 23.2641 2.30107 23.1367L5.2401 20.793C5.40112 20.6631 5.52767 20.4945 5.60826 20.3024C5.68885 20.1103 5.72094 19.9009 5.70161 19.693C5.67392 19.3672 5.657 19.0422 5.657 18.7164C5.657 18.3906 5.67315 18.0703 5.70161 17.7516C5.71883 17.5449 5.68517 17.3372 5.60366 17.1471C5.52216 16.957 5.39537 16.7905 5.23472 16.6625L2.29723 14.3187C2.14813 14.1907 2.04816 14.0134 2.01483 13.818C1.9815 13.6226 2.01694 13.4215 2.11493 13.25L5.40471 7.46875C5.50461 7.29765 5.66078 7.16786 5.84568 7.10226C6.03058 7.03665 6.23234 7.03945 6.41541 7.11016L9.86902 8.52266C10.0595 8.59968 10.2658 8.6275 10.4694 8.60364C10.673 8.57978 10.8677 8.50498 11.0359 8.38594C11.5629 8.01728 12.1168 7.68978 12.6927 7.40625C12.8737 7.31687 13.0303 7.1836 13.1486 7.01819C13.2669 6.85278 13.3433 6.66032 13.3711 6.45781L13.8887 2.71641C13.9227 2.51881 14.0232 2.33935 14.1731 2.20868C14.3229 2.07801 14.5128 2.00425 14.7102 2H21.2898C21.484 2.00341 21.6712 2.07391 21.8207 2.19987C21.9701 2.32583 22.0729 2.49975 22.112 2.69297L22.6289 6.42891C22.6579 6.63365 22.7363 6.82793 22.8571 6.99448C22.9779 7.16104 23.1373 7.2947 23.3212 7.38359C23.8964 7.66559 24.4483 7.99399 24.9718 8.36563C25.1394 8.48407 25.3334 8.5583 25.5363 8.58162C25.7392 8.60495 25.9446 8.57663 26.1341 8.49922L29.5869 7.0875C29.7699 7.01673 29.9716 7.01381 30.1565 7.07927C30.3414 7.14472 30.4976 7.27435 30.5976 7.44531L33.8874 13.2266C33.9863 13.3993 34.0216 13.6021 33.9871 13.7988C33.9526 13.9955 33.8505 14.1734 33.6989 14.3008L30.7599 16.6445C30.5982 16.7739 30.4709 16.9424 30.3896 17.1345C30.3083 17.3266 30.2757 17.5363 30.2945 17.7445C30.3199 18.068 30.3369 18.393 30.3369 18.7188Z" stroke="#2D2D2D" stroke-width="3" stroke-linecap="round" stroke-linejoin="round"/>
</svg>
