<svg width="32" height="32" viewBox="0 0 32 32" fill="none" xmlns="http://www.w3.org/2000/svg">
<path d="M14.4298 18.723C14.1372 18.723 13.8446 18.611 13.6218 18.3882L8.85494 13.6225C8.64009 13.4076 8.52009 13.1174 8.52009 12.8145C8.52009 12.5116 8.64009 12.2202 8.85494 12.0065L11.6366 9.22594C12.5052 8.35737 12.5052 6.94366 11.6366 6.07509L8.45951 2.89796C7.61723 2.05682 6.14981 2.05568 5.30753 2.89796C5.25724 2.94825 5.20124 2.99396 5.14181 3.03511C5.01038 3.12653 1.82068 5.40767 2.34411 10.1185C2.41382 10.7459 1.9624 11.3105 1.33497 11.3802C0.713257 11.4522 0.142974 10.9985 0.0732595 10.3711C-0.559881 4.68196 3.10068 1.70025 3.76125 1.21226C5.4721 -0.428881 8.39094 -0.401453 10.0744 1.28083L13.2515 4.45796C15.0115 6.21795 15.0115 9.0808 13.2515 10.8408L11.2801 12.8145L15.2378 16.7722C15.6846 17.2191 15.6846 17.9413 15.2378 18.3882C15.0149 18.6122 14.7223 18.723 14.4298 18.723Z" fill="#2D2D2D"/>
<path d="M8.8687 24.2842C8.57613 24.2842 8.28356 24.1722 8.0607 23.9493C5.25271 21.1413 3.151 18.4007 1.81272 15.803C1.52358 15.2419 1.74415 14.5528 2.30529 14.2636C2.86872 13.9745 3.55557 14.1962 3.84471 14.7562C5.07442 17.1436 7.03556 19.6933 9.67669 22.3333C10.1235 22.7802 10.1235 23.5024 9.67669 23.9493C9.45269 24.1733 9.16127 24.2842 8.8687 24.2842Z" fill="#2D2D2D"/>
<path d="M22.848 31.9596C18.3486 31.9596 13.3635 29.2522 8.00921 23.8968C7.56236 23.4499 7.56236 22.7276 8.00921 22.2808C8.45607 21.8339 9.17835 21.8339 9.62521 22.2808C14.8126 27.4693 19.6572 30.0088 23.664 29.6362C27.1954 29.3025 28.9074 26.8419 28.9246 26.8156C28.9646 26.7562 29.0103 26.7002 29.0617 26.6499C29.4823 26.2305 29.7143 25.6693 29.7143 25.0751C29.7143 24.4808 29.4823 23.9208 29.0617 23.5002L25.8846 20.3219C25.464 19.9014 24.904 19.6705 24.3074 19.6705C23.712 19.6705 23.1532 19.9014 22.7337 20.3219L19.9509 23.1025C19.504 23.5494 18.7817 23.5494 18.3349 23.1025L13.5703 18.3379C13.1235 17.8911 13.1235 17.1688 13.5703 16.722C14.0172 16.2751 14.7395 16.2751 15.1863 16.722L19.1429 20.6785L21.1166 18.7059C21.968 17.8534 23.1006 17.3837 24.3074 17.3837C25.5143 17.3837 26.648 17.8534 27.5006 18.7048L30.6777 21.8842C31.5303 22.7356 32 23.8694 32 25.0751C32 26.2476 31.5554 27.3528 30.7463 28.1962C30.3303 28.7585 28.0869 31.5139 23.8789 31.9116C23.5394 31.9448 23.1943 31.9596 22.848 31.9596Z" fill="#2D2D2D"/>
</svg>
