<svg width="32" height="32" viewBox="0 0 32 32" fill="none" xmlns="http://www.w3.org/2000/svg">
<path d="M16 29C8.83187 29 3 23.1581 3 15.9781C3 12.075 4.70313 8.41558 7.6725 5.94371C7.81114 5.82759 7.97133 5.73997 8.14389 5.68585C8.31645 5.63174 8.49799 5.61219 8.67811 5.62834C8.85823 5.64449 9.0334 5.69601 9.19358 5.77995C9.35376 5.86389 9.49581 5.97861 9.6116 6.11753C9.72738 6.25646 9.81462 6.41685 9.86832 6.58954C9.92202 6.76223 9.94113 6.94381 9.92455 7.1239C9.90797 7.30398 9.85603 7.47902 9.77171 7.639C9.68738 7.79898 9.57232 7.94076 9.43312 8.05621C7.0925 10.0062 5.75 12.8937 5.75 15.9781C5.75 21.6418 10.3481 26.25 16 26.25C21.6519 26.25 26.25 21.6418 26.25 15.9781C26.2498 14.4644 25.9144 12.9696 25.2679 11.601C24.6214 10.2323 23.6797 9.0239 22.5106 8.06246C22.3658 7.9494 22.2451 7.80847 22.1557 7.64799C22.0663 7.48752 22.0099 7.31074 21.9899 7.12811C21.9699 6.94549 21.9868 6.76071 22.0394 6.58469C22.092 6.40868 22.1794 6.24499 22.2964 6.10331C22.4133 5.96163 22.5575 5.84482 22.7203 5.75979C22.8832 5.67476 23.0614 5.62322 23.2445 5.60823C23.4276 5.59323 23.6119 5.61508 23.7864 5.67249C23.9609 5.72989 24.1222 5.82169 24.2606 5.94246C25.7427 7.16142 26.9363 8.69356 27.7558 10.4288C28.5753 12.1639 29.0002 14.0591 29 15.9781C29 23.1581 23.1681 29 16 29Z" fill="#2D2D2D"/>
<path d="M16 17C15.6353 17 15.2856 16.8551 15.0277 16.5973C14.7699 16.3394 14.625 15.9897 14.625 15.625V4.375C14.625 4.01033 14.7699 3.66059 15.0277 3.40273C15.2856 3.14487 15.6353 3 16 3C16.3647 3 16.7144 3.14487 16.9723 3.40273C17.2301 3.66059 17.375 4.01033 17.375 4.375V15.625C17.375 15.9897 17.2301 16.3394 16.9723 16.5973C16.7144 16.8551 16.3647 17 16 17Z" fill="#2D2D2D"/>
</svg>
