<svg width="42" height="47" viewBox="0 0 42 47" fill="none" xmlns="http://www.w3.org/2000/svg">
<path d="M20.4824 37.125C24.1258 37.1141 27.6169 35.662 30.1931 33.0857C32.7694 30.5094 34.2215 27.0184 34.2324 23.375V13.75C34.2324 10.1033 32.7838 6.60591 30.2051 4.02728C27.6265 1.44866 24.1291 0 20.4824 0C16.8357 0 13.3383 1.44866 10.7597 4.02728C8.18108 6.60591 6.73242 10.1033 6.73242 13.75V23.375C6.7433 27.0184 8.19545 30.5094 10.7717 33.0857C13.348 35.662 16.839 37.1141 20.4824 37.125ZM12.2324 13.75C12.2324 11.562 13.1016 9.46354 14.6488 7.91637C16.196 6.36919 18.2944 5.5 20.4824 5.5C22.6705 5.5 24.7689 6.36919 26.3161 7.91637C27.8632 9.46354 28.7324 11.562 28.7324 13.75V23.375C28.7324 25.563 27.8632 27.6615 26.3161 29.2086C24.7689 30.7558 22.6705 31.625 20.4824 31.625C18.2944 31.625 16.196 30.7558 14.6488 29.2086C13.1016 27.6615 12.2324 25.563 12.2324 23.375V13.75Z" fill="#2B87FF"/>
<path d="M23.2324 17.1875C23.9618 17.1875 24.6612 16.8978 25.177 16.382C25.6927 15.8663 25.9824 15.1668 25.9824 14.4375V12.375C25.9824 11.6457 25.6927 10.9462 25.177 10.4305C24.6612 9.91473 23.9618 9.625 23.2324 9.625C22.5031 9.625 21.8036 9.91473 21.2879 10.4305C20.7722 10.9462 20.4824 11.6457 20.4824 12.375V14.4375C20.4824 15.1668 20.7722 15.8663 21.2879 16.382C21.8036 16.8978 22.5031 17.1875 23.2324 17.1875Z" fill="#2B87FF"/>
<path d="M39.4575 30.525C38.0825 29.975 36.4325 30.525 35.8825 31.9C34.6588 34.6748 32.6566 37.035 30.1184 38.6946C27.5802 40.3541 24.6151 41.2418 21.5825 41.25H19.5145C16.4819 41.2418 13.5168 40.3541 10.9786 38.6946C8.44046 37.035 6.43817 34.6748 5.21451 31.9C5.08022 31.5667 4.87876 31.2647 4.62269 31.0127C4.36662 30.7606 4.0614 30.564 3.72605 30.435C3.3907 30.306 3.03238 30.2474 2.67341 30.2629C2.31445 30.2784 1.96251 30.3676 1.63951 30.525C1.30625 30.6593 1.00419 30.8608 0.752153 31.1168C0.500114 31.3729 0.303483 31.6781 0.174501 32.0135C0.0455192 32.3488 -0.0130522 32.7071 0.00243251 33.0661C0.0179172 33.4251 0.107127 33.777 0.264508 34.1C3.56451 41.8 11.2645 46.75 19.652 46.75H21.7145C25.8237 46.7439 29.8427 45.5454 33.2841 43.3C36.7255 41.0545 39.4413 37.8586 41.102 34.1C41.5145 32.725 40.8325 31.075 39.4575 30.525Z" fill="#2B87FF"/>
</svg>
