<svg width="24" height="28" viewBox="0 0 24 28" fill="none" xmlns="http://www.w3.org/2000/svg">
<path d="M23.1429 4.28571H18.7296L16.9082 1.24554C16.3982 0.472875 15.6107 0 14.7107 0H9.28929C8.38929 0 7.55357 0.472875 7.09286 1.24554L5.27036 4.28571H0.857143C0.381696 4.28571 0 4.66768 0 5.14286V6C0 6.47679 0.381696 6.85714 0.857143 6.85714H1.71429V24C1.71429 25.8937 3.24911 27.4286 5.14286 27.4286H18.8571C20.7509 27.4286 22.2857 25.8937 22.2857 24V6.85714H23.1429C23.6196 6.85714 24 6.47679 24 6V5.14286C24 4.66768 23.6196 4.28571 23.1429 4.28571ZM9.20893 2.72571C9.2625 2.63196 9.36964 2.57143 9.48214 2.57143H14.5179C14.6317 2.57143 14.7388 2.6317 14.7924 2.72545L15.7286 4.28571H8.27143L9.20893 2.72571ZM18.8571 24.8571H5.14286C4.66945 24.8571 4.28571 24.4734 4.28571 24V6.85714H19.7143V24C19.7143 24.4714 19.3286 24.8571 18.8571 24.8571ZM12 22.2857C12.4738 22.2857 12.8571 21.9024 12.8571 21.4286V10.2857C12.8571 9.81193 12.4738 9.42857 12 9.42857C11.5262 9.42857 11.1429 9.81428 11.1429 10.2857V21.4286C11.1429 21.9 11.5286 22.2857 12 22.2857ZM7.71429 22.2857C8.18571 22.2857 8.57143 21.9 8.57143 21.4286V10.2857C8.57143 9.81193 8.18807 9.42857 7.71429 9.42857C7.2405 9.42857 6.85714 9.81428 6.85714 10.2857V21.4286C6.85714 21.9 7.24286 22.2857 7.71429 22.2857ZM16.2857 22.2857C16.7595 22.2857 17.1429 21.9024 17.1429 21.4286V10.2857C17.1429 9.81193 16.7595 9.42857 16.2857 9.42857C15.8119 9.42857 15.4286 9.81428 15.4286 10.2857V21.4286C15.4286 21.9 15.8143 22.2857 16.2857 22.2857Z" fill="#EC0000"/>
</svg>
