<svg width="32" height="21" viewBox="0 0 32 21" fill="none" xmlns="http://www.w3.org/2000/svg">
<path d="M31.5826 1.94783C31.3043 1.8087 31.0261 1.8087 30.887 1.94783L26.0174 5.70435V4.03478C26.0174 1.8087 24.2087 0 21.9826 0H4.03478C1.8087 0 0 1.8087 0 4.03478V16.5565C0 18.7826 1.8087 20.5913 4.03478 20.5913H21.9826C24.2087 20.5913 26.0174 18.7826 26.0174 16.5565V14.887L30.887 18.6435C31.0261 18.7826 31.3043 18.7826 31.5826 18.6435C31.8609 18.5043 32 18.3652 32 18.087V2.50435C32 2.22609 31.8609 2.08696 31.5826 1.94783Z" fill="black"/>
</svg>
